<svg xmlns="http://www.w3.org/2000/svg" xmlns:xlink="http://www.w3.org/1999/xlink" width="48" height="49" version="1.1" viewBox="0 0 48 49"><title>calendar</title><g id="How-we-work" fill="none" fill-rule="evenodd" stroke="none" stroke-width="1"><g id="How-we-work---desktop" transform="translate(-281.000000, -927.000000)"><g id="Group-5-Copy-2" transform="translate(281.568030, 927.500000)"><g id="thin-0022_calendar_month_day_planner"><g id="Group" stroke="#00CFFF" stroke-width="2" transform="translate(0.870700, 0.893490)"><path id="Shape" d="M44.6850874,4.7421748 C44.6850874,2.12307321 42.6159736,0 40.0634836,0 L4.62160373,0 C2.06911383,0 0,2.12307321 0,4.7421748 L0,41.1127376 C0,43.7316398 2.06911383,45.8547131 4.62160373,45.8547131 L40.0634836,45.8547131 C42.6159736,45.8547131 44.6850874,43.7316398 44.6850874,41.1125383 L44.6850874,4.7421748 L44.6850874,4.7421748 Z"/><path id="Shape" d="M0,11.9620991 L44.6850874,11.9620991"/></g><rect id="Rectangle-path" width="47.018" height="48.248" x="0" y="0"/></g><g id="Group-2" stroke="#00CFFF" stroke-width="2" transform="translate(10.448396, 21.337253)"><path id="Shape" d="M0.870699681,14.889994 L2.49855981,14.889994"/><path id="Shape" d="M5.22419809,14.889994 L6.85223235,14.889994"/><path id="Shape" d="M9.5776965,14.889994 L11.2055566,14.889994"/><path id="Shape" d="M13.9311949,14.889994 L15.559055,14.889994"/><path id="Shape" d="M0.870699681,11.2095236 L2.49855981,11.2095236"/><path id="Shape" d="M5.22419809,11.2095236 L6.85223235,11.2095236"/><path id="Shape" d="M9.5776965,11.2095236 L11.2055566,11.2095236"/><path id="Shape" d="M13.9311949,11.2095236 L15.559055,11.2095236"/><path id="Shape" d="M18.2846933,11.2095236 L19.9125534,11.2095236"/><path id="Shape" d="M22.6381917,11.2095236 L24.2660518,11.2095236"/><path id="Shape" d="M0.870699681,7.63556313 L2.49855981,7.63556313"/><path id="Shape" d="M5.22419809,7.63556313 L6.85223235,7.63556313"/><path id="Shape" d="M9.5776965,7.63556313 L11.2055566,7.63556313"/><path id="Shape" d="M13.9311949,7.63556313 L15.559055,7.63556313"/><path id="Shape" d="M18.2846933,7.63556313 L19.9125534,7.63556313"/><path id="Shape" d="M22.6381917,7.63556313 L24.2660518,7.63556313"/><path id="Shape" d="M0.870699681,4.19778197 L2.49855981,4.19778197"/><path id="Shape" d="M5.22419809,4.19778197 L6.85223235,4.19778197"/><path id="Shape" d="M9.5776965,4.19778197 L11.2055566,4.19778197"/><path id="Shape" d="M13.9311949,4.19778197 L15.559055,4.19778197"/><path id="Shape" d="M18.2846933,4.19778197 L19.9125534,4.19778197"/><path id="Shape" d="M22.6381917,4.19778197 L24.2660518,4.19778197"/><path id="Shape" d="M13.9311949,0.623821496 L15.559055,0.623821496"/><path id="Shape" d="M18.2846933,0.623821496 L19.9125534,0.623821496"/><path id="Shape" d="M22.6381917,0.623821496 L24.2660518,0.623821496"/></g></g></g></g></svg>