<svg xmlns="http://www.w3.org/2000/svg" xmlns:xlink="http://www.w3.org/1999/xlink" width="56" height="59" aria-hidden="true" role="img" version="1.1" viewBox="0 0 56 59"><title>Folder with clock</title><desc>Representative of design systems</desc><g fill="none" fill-rule="evenodd" stroke="none" stroke-width="1"><g><g transform="translate(-541.000000, -803.000000) translate(540.000000, 804.000000)"><path stroke="#00CFFF" stroke-width="2" d="M12.8566853,7.21007066 C12.2761355,5.85853777 11.3766285,4 10.6746846,4 L3.81758016,4 C2.81548319,4 2,4.81019956 2,5.80692506 L2,40.4729035 C2,41.4686687 2.81524516,42.2781481 3.81758016,42.2781481 L16.0564928,42.2781481"/><path stroke="#00CFFF" stroke-width="2" d="M47.2179998,18.5191509 L47.2179998,9.83381168 C47.2179998,8.82220251 46.4027547,8 45.4013718,8 L41,8"/><path stroke="#00CFFF" stroke-width="2" d="M47.0762737,16 L2,16"/><polygon stroke="#00CFFF" stroke-width="2" points="42.187 15.259 7.235 15.259 6 7.85 39.501 1"/><ellipse cx="38.606" cy="39.747" stroke="#00CFFF" stroke-width="2" rx="16.606" ry="16.747"/><polyline stroke="#00CFFF" stroke-width="2" points="46.783 39.599 38 39.599 38 27"/></g></g></g></svg>