<svg xmlns="http://www.w3.org/2000/svg" xmlns:xlink="http://www.w3.org/1999/xlink" width="60" height="60" aria-hidden="true" role="img" version="1.1" viewBox="0 0 60 60"><title>Monitor icon</title><desc>Improve public facing interfaces</desc><g fill="none" fill-rule="evenodd" stroke="none" stroke-width="1"><g stroke="#00CFFF" stroke-width="2"><g transform="translate(-540.000000, -542.000000) translate(541.000000, 543.000000)"><path id="Shape" d="M33.4119424,50 C38.1582333,50 39.249395,53.6406576 40.7129472,56.6090012 C40.7129472,57.1041006 40.2215118,57.5090909 39.6160333,57.5090909 L18.0969139,57.5090909 C17.4914354,57.5090909 17,57.0189976 17,56.5238982 C18.5045677,53.5938509 19.6672564,50 24.3002545,50 L33.4119424,50 L33.4119424,50 Z"/><path d="M53.504688,0 L4.00876256,0 C1.73165338,0 0,1.93534303 0,4.21335091 L0,36.2263576 C0,38.505617 1.73165338,40.0484848 4.00876256,40.0484848 L53.504688,40.0484848 C55.7842981,40.0484848 57.5217037,38.505617 57.5217037,36.2263576 L57.5217037,4.21335091 C57.5217037,1.93534303 55.7842981,0 53.504688,0 L53.504688,0 Z"/><path d="M28,50.00556 L28,45"/><path d="M0.5,7.18 L56.5596315,7.18"/><rect width="7.258" height="7.259" x="6" y="26"/><rect width="7.258" height="7.259" x="6" y="13"/><path d="M18,14 L34.1667419,14"/><path d="M18,27 L34.1667419,27"/><path d="M18,18 L25.0349906,18"/><path d="M18,31 L25.0349906,31"/></g></g></g></svg>