<svg xmlns="http://www.w3.org/2000/svg" xmlns:xlink="http://www.w3.org/1999/xlink" width="96" height="96" aria-hidden="true" role="img" version="1.1" viewBox="0 0 96 96"><title>Open</title><desc>Representing our commitment to open source</desc><g fill="none" fill-rule="evenodd" stroke="none" stroke-width="1"><g transform="translate(-374.000000, -1209.000000)"><path id="Shape" stroke="#00CFFF" stroke-width="4" d="M421.8692,1290.2584 L421.8692,1302.4068 C419.9352,1288.966 375.8992,1292.9072 375.8992,1292.9072 L375.8992,1215.4872 C375.8992,1215.4872 379.0292,1215.7036 384.0512,1216.3116"/><path id="Shape" stroke="#00CFFF" stroke-width="4" d="M421.8692,1302.4068 C423.8032,1288.966 467.8392,1292.9072 467.8392,1292.9072 L467.8392,1215.4872 C467.8392,1215.4872 464.5704,1215.6964 459.6872,1216.2808"/><path id="Shape" stroke="#00CFFF" stroke-width="4" d="M421.8692,1290.2584 C420.278,1279.5052 384.0512,1282.658 384.0512,1282.658 L384.0512,1211.952 C384.0512,1211.952 420.2784,1214.158 421.8692,1224.9112 L421.8692,1290.2584 L421.8692,1290.2584 Z"/><path id="Shape" stroke="#00CFFF" stroke-width="4" d="M421.8692,1290.2584 C423.4604,1279.5052 459.6872,1282.658 459.6872,1282.658 L459.6872,1211.952 C459.6872,1211.952 423.46,1214.158 421.8692,1224.9112 C421.8692,1224.9268 421.8692,1290.2584 421.8692,1290.2584 L421.8692,1290.2584 Z"/><rect id="Rectangle-path" width="96" height="96" x="374" y="1209"/></g></g></svg>