<svg xmlns="http://www.w3.org/2000/svg" xmlns:xlink="http://www.w3.org/1999/xlink" id="Layer_1" x="0" y="0" enable-background="new 0 0 65 65" version="1.1" viewBox="0 0 65 65" xml:space="preserve"><style type="text/css">.st0{fill:#00cfff}</style><g><path d="M19.5,46.1H6.4c-0.7,0-1.3,0.6-1.3,1.3v13.1c0,0.7,0.6,1.3,1.3,1.3h13.1c0.7,0,1.3-0.6,1.3-1.3V47.5 C20.8,46.7,20.2,46.1,19.5,46.1z M18.2,59.2H7.7V48.8h10.5V59.2z" class="st0"/><path d="M19.5,25.2H6.4c-0.7,0-1.3,0.6-1.3,1.3v13.1c0,0.7,0.6,1.3,1.3,1.3h13.1c0.7,0,1.3-0.6,1.3-1.3V26.5 C20.8,25.8,20.2,25.2,19.5,25.2z M18.2,38.3H7.7V27.8h10.5V38.3z" class="st0"/><path d="M58.6,51.4H27.4c-0.7,0-1.3,0.6-1.3,1.3c0,0.7,0.6,1.3,1.3,1.3h31.2c0.7,0,1.3-0.6,1.3-1.3 C59.9,52,59.3,51.4,58.6,51.4z" class="st0"/><path d="M58.6,30.4H27.4c-0.7,0-1.3,0.6-1.3,1.3c0,0.7,0.6,1.3,1.3,1.3h31.2c0.7,0,1.3-0.6,1.3-1.3 C59.9,31,59.3,30.4,58.6,30.4z" class="st0"/><path d="M27.4,12.1h31.2c0.7,0,1.3-0.6,1.3-1.3c0-0.7-0.6-1.3-1.3-1.3H27.4c-0.7,0-1.3,0.6-1.3,1.3 C26.1,11.5,26.6,12.1,27.4,12.1z" class="st0"/><path d="M21.2,4.3L10.8,16.7L7.4,13c-0.5-0.5-1.3-0.6-1.9-0.1c-0.5,0.5-0.6,1.3-0.1,1.9l4.4,4.8c0.2,0.3,0.6,0.4,1,0.4 c0,0,0,0,0,0c0.4,0,0.7-0.2,1-0.5L23.2,6c0.5-0.6,0.4-1.4-0.2-1.8C22.5,3.7,21.7,3.8,21.2,4.3z" class="st0"/></g></svg>